<svg xmlns="http://www.w3.org/2000/svg" xmlns:xlink="http://www.w3.org/1999/xlink" version="1.1" id="Layer_1" x="0px" y="0px" viewBox="0 0 406 133" style="enable-background:new 0 0 406 133;" xml:space="preserve">
<style type="text/css">
	.st0{fill:#4C121D;}
	.st1{fill:#EC1D36;}
	.st1:hover{fill:#FFF;}
</style>
<a xmlns="http://www.w3.org/2000/svg" id="a" xlink:href="/" xmlns:xlink="http://www.w3.org/1999/xlink" target="_top">
	<path class="st0" d="M274.8 1.9c-1-0.6-2.3-0.4-3 0.5c-0.9 1.1-0.7 2.6-0.6 4c0.1 1.7 0.1 3.3 0.2 5c-1.9-1.8-3.7-3.6-5.5-5.5 c-1.4-1.5-2.7-3.4-4.8-3.7c-1.1-0.2-2.3 0.2-3.4 0.2c-0.9 0-2-0.2-2.5 0.7c-0.4 0.8 0 1.8 0 2.5c0.1 1.4 0 2.7 0 4.1 c-1-0.8-1.9-1.9-2.8-2.8c-0.9-0.9-1.9-1.8-2.8-2.9c-1.1-1.2-2.3-3.3-4.3-3c-1.8 0.3-1.9 2.6-2 4c-0.2 2.9-0.7 5.8-1.2 8.7 c-1.6-2-3.6-3.6-5.4-5.5c-1.8-1.8-3.3-3.8-5.3-5.4c-0.8-0.6-1.8-1-2.6-0.2c-0.8 0.7-0.6 1.8-0.5 2.7c0.2 2.8 0 5.7 0 8.6 c-1.2-0.9-2.2-2.1-3.2-3.2c-1.1-1.2-2.3-2.4-3.5-3.5c-1.2-1.2-2.3-2.3-3.5-3.5c-1-1-2-2-3.4-2.4c-2.3-0.8-5-0.2-6.5 1.8 c-1.7 2.2-1.7 5.2-1.8 7.9c-2.1-2.2-4.3-4.3-6.5-6.4c-1.6-1.6-3.4-3.4-5.8-3.1c-4.2 0.4-6.1 5.3-6.2 8.9c-1.6-1.4-3.1-3-4.6-4.6 c-1.2-1.3-2.3-2.9-4.1-3.5c-1.7-0.5-3.8-0.3-5.5 0.3c-1.8 0.6-1 3.3-1 4.7c-1.7-1.5-3.1-3.3-4.8-4.9c-1-1-3-2.5-4.2-1 c-0.7 0.7-0.6 1.8-0.6 2.7c0 1.2 0 2.3-0.1 3.5c-0.1 2.5-0.3 5-0.6 7.4c-1.2-0.9-2.2-2.1-3.3-3.2c-1.1-1.1-2.1-2.2-3.3-3.3 c-0.8-0.8-2-1.7-3.2-1.2c-1 0.5-1.2 1.7-1.2 2.7c-1.4-1.7-3.1-3.1-4.7-4.7c-1-1-2.1-2.9-3.7-2.8c-1.8 0.1-1.7 2-1.5 3.3 c0.5 2.4 0.9 4.9 1.3 7.4c-0.4-0.3-0.8-0.9-1.1-1.2c-0.4-0.4-0.8-0.8-1.2-1.3c-1-1.1-2.1-2-3.2-3.1c-1-1-1.9-2-2.9-3 c-0.7-0.7-1.4-1.5-2.3-1.9c-4.4-2.1-5.4 9.3-5.8 11.5c-2.8-2.7-5.4-5.5-8.2-8.2c-1.1-1.1-2.2-2.4-3.5-3.2c-1.4-0.8-3.1-0.7-4.7-0.5 c-1.5 0.2-9.8 0.6-7.9 3.5c1 1.5 2.7 2.7 4 3.9c0.6 0.6 1.3 1.1 1.7 1.7c0.6 0.9 0.1 2 0.1 3c-2.6-2.3-5-4.9-7.4-7.4 c-1.7-1.8-3.3-4.3-5.8-4.8c-1.7-0.3-9 0-7.6 3.2c0.5 1.2 1.9 1.6 2.7 2.5c0.5 0.6 0.4 1.4 0.4 2.1c-0.1 1-0.1 2.1-0.1 3.1 c-1.1-1.6-2.7-2.8-4.1-4.1c-1.6-1.6-3.3-3.1-4.8-4.8c-0.8-0.9-2.2-2.8-3.4-1.5c-0.6 0.6-0.5 1.5-0.5 2.3c0 1.2 0.1 2.5 0.1 3.7 c-0.7-0.5-1.3-1.3-1.9-1.9C74.8 6 74 5.3 73.4 4.5c-0.9-1.1-2-2.7-3.6-2.7c-1.3 0-1.5 1.4-1.5 2.4c-0.1 2.1 0.1 4.2 0.1 6.2 c-1.9-2.1-4-4.2-6.1-6.2c-1.8-1.7-3.9-2.9-6.4-2.8c-4.2 0.3-8.5 3.6-8.7 8c-1.7-2.2-3.8-4-5.8-5.9C40.4 3 39.6 2.2 38.4 2 c-1.5-0.2-3 0.2-4.4 0.5c-1.3 0.3-3.6 0.9-3.1 2.6C31.3 6.8 33.9 7 34 8.9c-1.7-2.1-3.8-3.8-5.7-5.7c-1.1-1.2-2.9-3.6-4.7-2.1 c-1.4 1.2-0.9 3.5-0.8 5.1c0.1 2.9-0.4 5.9-0.6 8.8c-1.2-0.9-2.1-2-3.1-3.1c-1.1-1.2-2.2-2.3-3.4-3.4c-0.9-0.8-2.1-1.8-3.3-1.2 C11.2 7.7 11 9 11 10c-1.2-1.4-2.6-2.7-4-4C6.4 5.3 5.8 4.7 5.1 4c-0.5-0.6-1-1.3-1.8-1.5c-0.7-0.2-1.6 0-2.1 0.6 C0.8 3.9 1 4.7 1.2 5.5c0.4 1.9 0.7 3.9 1 5.8c1.3 8 2.3 15.9 3.4 23.9c0.6 4 0.8 8 1.2 12C7 49 7.4 50.5 8.6 51.8 C9.7 53.1 90 133 90 133s312.1 0.1 316.1 0.1"/>
	<g>
		<path class="st1" d="M8.1 34.3c1.6-12.5 2.3-20.7 2.3-24.5V8.5c0-0.5 0.2-0.9 0.5-1.3c0.3-0.4 0.7-0.6 1.2-0.6 c1.7 0 2.6 0.6 2.6 1.9v1c0 4.2 0.8 10.1 2.5 18c0.8 3.5 1.3 6.2 1.6 8.2c0.2-2.4 0.6-5.8 1.3-10.2c1.3-9.7 2-17.2 2-22.5 c0-0.9 0.2-1.6 0.5-2c0.3-0.4 0.8-0.6 1.5-0.6c0.7 0 1.3 0.2 1.7 0.5s0.6 0.8 0.6 1.3s-0.2 1-0.7 1.4c-0.6 3.5-1.2 8.7-1.7 15.7 s-1 11.8-1.4 14.6c-0.5 2.8-0.8 4.7-0.9 5.7c-0.5 3.5-0.8 6.6-0.8 9.3c0 0.6-0.2 1.2-0.5 1.6c-0.3 0.4-0.8 0.6-1.3 0.6 c-0.6 0-1-0.3-1.4-1c-0.4-0.7-0.7-1.6-0.9-2.7c-0.2-1.1-0.4-2.2-0.5-3.3c-0.1-1-0.2-2.1-0.3-3.2c-0.1-1.1-0.2-2.3-0.3-3.5 c-0.2-1.2-0.7-3.9-1.5-7.9c-0.8-4.1-1.3-6.5-1.4-7.1c-1.6 12-2.3 21-2.3 27.1c0 0.5-0.2 0.9-0.6 1.2c-0.4 0.4-0.8 0.5-1.3 0.5 c-1.6 0-2.3-1.6-2.3-4.9c0-2-0.9-9.3-2.6-22C1.8 11.5 0.7 4.5 0.2 3.4c0.5-1 1.3-1.5 2.2-1.5c1.2 0 2.1 1.6 2.7 4.8 c0.3 1.5 0.4 3.4 0.5 5.6c0.1 2.3 0.1 3.8 0.2 4.6c0.1 0.8 0.2 2.1 0.4 3.8c0.2 1.7 0.4 3.1 0.6 4.4C7.1 27.8 7.6 30.9 8.1 34.3z"/>
		<path class="st1" d="M37.8 46.4l1.3 0c1.7 0 2.6 0.4 2.6 1.1c0.2 0.7 0.1 1.2-0.2 1.5c-0.3 0.3-0.8 0.5-1.4 0.5h-8 c-1.2 0-1.8-0.5-1.8-1.5c0-1 0.6-1.5 1.9-1.5l2 0c0.2 0 0.3-1.1 0.3-3.2c0-2.1-0.2-6.5-0.6-13.1c-0.4-6.6-0.6-11.5-0.6-14.8 l0.1-6.5c0-1.4-0.1-2.6-0.2-3.6c-0.6 0.2-1.1 0.3-1.5 0.3c-1 0-1.5-0.5-1.5-1.5c0-0.5 0.3-1 1-1.4c0.6-0.4 1.5-0.7 2.4-0.8 c1.8-0.3 3.1-0.5 4-0.5c0.9 0 1.5 0.2 1.9 0.5S40 2.7 40 3.2S39.9 4 39.6 4.4c-0.3 0.3-0.6 0.5-1.1 0.5l-1.1 0 c-0.4 0-0.7 0.1-0.9 0.3c-0.2 0.2-0.3 0.5-0.3 1c0 4.2 0.3 10.4 0.8 18.7c0.5 8.3 0.8 14.6 0.8 18.7V46.4z"/>
		<path class="st1" d="M50 18.7l-0.6 4.5c0 2.2 0.3 6.1 0.9 11.9c0.6 5.8 1.1 9.1 1.7 9.9c1 1.4 2.4 2.1 4.4 2.1c2 0 3.5-0.6 4.5-1.8 c0.7 0 1.4-0.1 2-0.3v0.8c0 1.3-0.4 2.3-1.1 3.2C60.6 50.3 58.7 51 56 51c-1.4 0-2.9-0.5-4.3-1.5c-1.4-1-2.5-2.2-3.2-3.8 c-0.7-1.5-1.3-5.5-1.7-11.9c-0.4-6.4-0.6-11.3-0.6-14.8c0-3.5 0.1-5.9 0.4-7.4c-0.1-0.7-0.2-1.4-0.2-2c0-2.6 1-4.7 2.9-6.3 c2-1.6 4.4-2.3 7.3-2.3c1 0 2 0.3 3 0.9c1 0.6 1.5 1.3 1.5 2.3c0 0.5-0.2 0.8-0.5 1.1c-0.4 0.2-0.8 0.4-1.5 0.4S58 5.3 57.7 4.8 v0.1h-1V4.7c-3.3 0-5.4 1.4-6.2 4.2c-0.4 1.4-0.6 3.2-0.6 5.4L50 18.7z"/>
		<path class="st1" d="M77.3 24.2l-0.6-21c0-0.3 0.1-0.7 0.5-1c0.4-0.4 0.8-0.6 1.2-0.6c0.4 0 0.8 0.4 1.2 1.1c0.4 0.7 0.5 2 0.5 3.7 c0 4.7 0.2 11.7 0.6 21.1c0.4 9.4 0.6 16.4 0.6 21.1c0 0.6-0.2 1.1-0.5 1.6C80.5 50.7 80 51 79.5 51c-1.1 0-1.6-0.7-1.6-2.1 c0-8-0.2-15.5-0.5-22.6c-1.1-0.2-2.2-0.3-3.2-0.3c-1 0-1.8 0.2-2.6 0.5c0 2.3 0.2 5.9 0.5 10.7c0.3 4.8 0.5 8.5 0.5 11 c0 0.4-0.1 0.8-0.4 1.2c-0.3 0.4-0.6 0.5-1 0.5c-0.7 0-1.2-0.3-1.5-0.9c-0.3-0.6-0.6-2.1-0.7-4.5s-0.2-5.1-0.2-8.1 c0-2.9-0.1-4.7-0.1-5.2C68 20.1 67.6 10.6 67.6 2.8V2.3c0.1-0.7 0.4-1 1.1-1c1.3 0 2.1 0.4 2.3 1.3c-0.1 1.5-0.2 3.1-0.2 4.8 l0.4 13.2L71.1 23c0 0.6 0 1.2 0.1 1.7L77.3 24.2z"/>
		<path class="st1" d="M94.1 46.4l1.3 0c1.7 0 2.6 0.4 2.6 1.1c0.2 0.7 0.1 1.2-0.2 1.5c-0.3 0.3-0.8 0.5-1.4 0.5h-8 c-1.2 0-1.8-0.5-1.8-1.5c0-1 0.6-1.5 1.9-1.5l2 0c0.2 0 0.3-1.1 0.3-3.2c0-2.1-0.2-6.5-0.6-13.1c-0.4-6.6-0.6-11.5-0.6-14.8 l0.1-6.5c0-1.4-0.1-2.6-0.2-3.6c-0.6 0.2-1.1 0.3-1.5 0.3c-1 0-1.5-0.5-1.5-1.5c0-0.5 0.3-1 1-1.4c0.6-0.4 1.5-0.7 2.4-0.8 c1.8-0.3 3.1-0.5 4-0.5c0.9 0 1.5 0.2 1.9 0.5s0.6 0.8 0.6 1.2S96.1 4 95.9 4.4c-0.3 0.3-0.6 0.5-1.1 0.5l-1.1 0 c-0.4 0-0.7 0.1-0.9 0.3c-0.2 0.2-0.3 0.5-0.3 1c0 4.2 0.3 10.4 0.8 18.7c0.5 8.3 0.8 14.6 0.8 18.7V46.4z"/>
		<path class="st1" d="M110.7 12.8l-0.1 8.3c0 3.9 0.3 7.2 1 9.8v0c-0.3 1.4-0.4 3-0.4 4.9l0.5 11.5c0 2.1-0.6 3.1-1.8 3.1 c-0.7 0-1.2-0.3-1.6-1c-0.3-0.7-0.5-1.4-0.5-2.2l0.5-10.2c0-2.2-0.1-5.5-0.4-10c-0.3-4.4-0.4-7.8-0.4-10l0.1-5.6 c0-3.1-0.2-5.1-0.6-6l-3.5 0.3c-0.5 0-1-0.2-1.5-0.5c-0.4-0.3-0.6-0.7-0.6-1.3s0.5-1 1.5-1.3s2.3-0.6 3.8-0.8 c2.6-0.3 4.7-0.4 6.5-0.4c0.5 0 1 0.2 1.4 0.5c0.4 0.3 0.6 0.8 0.6 1.3s-0.2 0.9-0.6 1.2c-0.4 0.3-0.8 0.5-1.4 0.5l-2.3-0.1 c-0.3 0-0.5 0-0.7 0C110.6 7.4 110.7 10 110.7 12.8z"/>
		<path class="st1" d="M132.2 2.2c0.8 6 1.7 13.8 2.6 23.4c0.9 9.6 1.4 17 1.4 22.3c0 1.4-0.7 2.2-2.1 2.2s-2.1-0.6-2.1-1.7V40 c-0.6-0.4-1.7-0.8-3.2-1.1c-1.6-0.3-2.9-0.5-4.1-0.6c-0.5 0.9-0.9 2.7-1.2 5.4c-0.3 2.7-0.7 4.6-1.4 5.6c-2.1 0-3.2-0.4-3.4-1.3 c1-1.4 2.9-10.3 5.9-26.7c1.1-6.5 1.8-10.3 2.1-11.3c1.1-5.5 2.4-8.3 3.7-8.3c0.8 0 1.4 0.2 1.9 0.6V2.2z M131.9 36 c-0.1-0.8-0.3-3.1-0.6-6.9c-0.9-9.8-1.4-15.3-1.4-16.4c0-1.2 0-1.8 0-1.9c-0.3 0.3-0.8 3.3-1.8 9.1c-0.9 5.8-1.5 8.9-1.6 9.4 c-0.1 0.5-0.3 1.2-0.6 2.1c-0.6 1.8-0.9 3.2-0.9 4.2c1.8 0.5 3.2 0.7 4.4 0.7C130.6 36.2 131.4 36.1 131.9 36z"/>
		<path class="st1" d="M148.6 34.3c1.6-12.5 2.3-20.7 2.3-24.5V8.5c0-0.5 0.2-0.9 0.5-1.3c0.3-0.4 0.7-0.6 1.2-0.6 c1.7 0 2.6 0.6 2.6 1.9v1c0 4.2 0.8 10.1 2.5 18c0.8 3.5 1.3 6.2 1.6 8.2c0.2-2.4 0.6-5.8 1.3-10.2c1.3-9.7 2-17.2 2-22.5 c0-0.9 0.2-1.6 0.5-2c0.3-0.4 0.8-0.6 1.5-0.6c0.7 0 1.3 0.2 1.7 0.5c0.4 0.3 0.6 0.8 0.6 1.3s-0.2 1-0.7 1.4 c-0.6 3.5-1.2 8.7-1.7 15.7c-0.5 6.9-1 11.8-1.4 14.6c-0.5 2.8-0.8 4.7-0.9 5.7c-0.5 3.5-0.8 6.6-0.8 9.3c0 0.6-0.2 1.2-0.5 1.6 c-0.3 0.4-0.8 0.6-1.3 0.6c-0.6 0-1-0.3-1.4-1c-0.4-0.7-0.7-1.6-0.9-2.7c-0.2-1.1-0.4-2.2-0.5-3.3c-0.1-1-0.2-2.1-0.3-3.2 s-0.2-2.3-0.3-3.5c-0.2-1.2-0.7-3.9-1.5-7.9c-0.8-4.1-1.3-6.5-1.4-7.1c-1.6 12-2.3 21-2.3 27.1c0 0.5-0.2 0.9-0.6 1.2 c-0.4 0.4-0.8 0.5-1.3 0.5c-1.6 0-2.3-1.6-2.3-4.9c0-2-0.9-9.3-2.6-22c-1.8-12.6-2.9-19.5-3.4-20.7c0.5-1 1.3-1.5 2.2-1.5 c1.2 0 2.1 1.6 2.7 4.8c0.3 1.5 0.4 3.4 0.5 5.6c0.1 2.3 0.1 3.8 0.2 4.6c0.1 0.8 0.2 2.1 0.4 3.8c0.2 1.7 0.4 3.1 0.6 4.4 C147.6 27.8 148.1 30.9 148.6 34.3z"/>
		<path class="st1" d="M178.6 26.5l-1.6-0.1c-0.5 0-0.9 0.2-1.1 0.5v19.8c2.2-0.1 3.3-0.2 3.4-0.2c2.4 0 3.6 0.6 3.6 1.7v0.2 c-0.3 0.6-0.8 1-1.5 1.3c-0.7 0.3-1.3 0.5-1.8 0.5c-0.5 0-1.2 0.1-2.1 0.1h-2c-1.6 0-2.6-0.3-3-0.9c-0.2-0.3-0.3-0.7-0.3-1.2V2 l5.5-0.6c0.6 0 1.3 0.2 2 0.6c0.7 0.4 1 0.9 1 1.5c0 1.3-1 1.9-2.9 1.9l-1.8-0.1c-0.3 0-0.5 0-0.7 0l0.5 10.6 c0 0.9-0.1 2.1-0.2 3.7c-0.1 1.6-0.2 2.8-0.2 3.6c0.2 0 0.5-0.1 0.9-0.2c0.9-0.2 1.6-0.3 2-0.3c0.5 0 0.9 0.2 1.3 0.5 c0.4 0.4 0.6 0.8 0.6 1.3c0 0.5-0.2 1-0.5 1.3C179.5 26.3 179.1 26.5 178.6 26.5z"/>
		<path class="st1" d="M186.6 49.3c0-1.1 0.5-1.7 1.4-1.7c0.5 0 1.1 0.2 1.9 0.5c0.8 0.3 1.5 0.5 2 0.5c0.6 0 1.2-0.4 1.9-1.1 c0.7-0.7 1.2-1.6 1.6-2.7c0.8-2.2 1.2-4.2 1.2-6c0-1.8-0.3-3.7-0.9-5.8s-1.4-4-2.3-5.8c-0.9-1.8-1.8-3.6-2.7-5.4 c-2.1-4.3-3.2-8.2-3.2-11.7c0-3.3 1.1-6 3.2-7.9c1.1-1 2.5-1.5 4-1.5c0.8 0 1.5 0.2 2.3 0.6c0.7 0.4 1.2 1 1.5 1.7v1.4 c-1.8 0-3-0.2-3.6-0.6c-0.8 0.1-1.5 0.5-2.1 1.1c-1.1 1.3-1.6 2.7-1.6 4.3s0.2 3.3 0.7 5.1c0.5 1.7 1.1 3.4 1.7 4.9 c0.7 1.5 1.3 3 2 4.3c0.7 1.3 1.3 2.4 1.7 3.2c0.5 0.8 0.7 1.3 0.7 1.3v0.5c0.1 0.5 0.4 1.4 0.7 2.6c0.4 1.2 0.6 2.1 0.8 2.8 c0.5 1.9 0.8 3.6 0.8 5.1c0 1.5-0.2 3-0.5 4.4c-0.4 1.4-0.9 2.7-1.6 3.9c-0.7 1.2-1.6 2.2-2.8 3c-1.2 0.8-2.2 1.2-3.2 1.2 s-1.8-0.1-2.5-0.2c-0.7-0.1-1.4-0.3-2.1-0.7C186.9 50.2 186.6 49.8 186.6 49.3z"/>
		<path class="st1" d="M221.5 30.7l-0.6 8.1v0.3c-0.3 1.2-0.4 2.5-0.4 3.8c0 1.4-0.2 2.7-0.7 4c-0.5 1.3-1.2 2.4-2.2 3.4 c-1 1-2 1.5-3.2 1.5s-2.2-0.4-3.1-1.2s-1.7-1.8-2.3-3.1c-0.6-1.2-1.2-2.7-1.6-4.4c-0.5-1.7-0.8-3.4-1.1-5c-0.3-1.6-0.5-3.4-0.6-5.2 c-0.2-2.8-0.3-5.1-0.3-6.8s0-3.2 0.1-4.4c0.1-2.1 0.2-4 0.3-5.6c0.1-1.6 0.2-2.9 0.2-3.8c0-0.9 0-1.6 0.1-2.2 c0-0.6 0.1-1.4 0.2-2.2c0.1-0.9 0.2-1.6 0.4-2.3c0.1-0.6 0.4-1.3 0.7-2c0.3-0.7 0.7-1.3 1.1-1.7c1-1 2-1.5 3.2-1.5s2.1 0.1 2.8 0.3 c0.7 0.2 1.3 0.5 1.8 0.9c0.5 0.4 0.9 0.8 1.3 1.4c0.4 0.6 0.7 1.2 1 1.7c0.3 0.6 0.5 1.2 0.7 2c0.3 1 0.5 2.4 0.8 4.3 C221 18.4 221.5 25 221.5 30.7z M215.8 7.2c-0.4-1.1-0.9-1.9-1.5-2.5c-0.6-0.6-1.2-0.9-1.8-0.9s-1 0.1-1.4 0.4 c-0.4 0.3-0.7 0.7-0.9 1.3c-0.2 0.6-0.5 1.2-0.7 1.9c-0.2 0.7-0.4 1.5-0.5 2.4c-0.1 0.9-0.3 1.8-0.4 2.6c-0.1 0.8-0.2 1.7-0.3 2.8 c-0.1 1.1-0.1 1.9-0.2 2.6c0 0.7-0.1 1.5-0.1 2.4c0 0.9 0 1.6 0 1.9v1.3c0 3.4 0.3 7.4 1 11.8c1.3 8.7 3.1 13.1 5.5 13.1 c0.8 0 1.5-0.8 2.1-2.4c0.6-1.6 1-3.6 1.2-6c0.4-4.1 0.6-7 0.6-8.8c0-1.8 0-3.1 0-3.9c0-0.8 0-1.9-0.1-3.5 c-0.1-1.5-0.1-2.9-0.3-4.3c-0.1-1.3-0.3-2.8-0.5-4.4c-0.2-1.6-0.4-3-0.8-4.3C216.6 9.5 216.3 8.3 215.8 7.2z"/>
		<path class="st1" d="M237.7 36.7c2.9-16.4 4.6-27.8 5.3-34.2V2.2c0.1-0.6 0.4-1 0.8-1.3c0.4-0.3 0.9-0.5 1.3-0.5 c0.4 0 0.8 0.1 1 0.3c0.5 0.4 0.8 0.8 0.8 1.4c0 5.1 0.1 12.7 0.4 22.8c0.3 10.1 0.4 17.7 0.4 22.8c0 1.3-0.4 2.3-1.3 3 c-0.5 0.3-0.7 0.4-0.8 0.2c-0.9 0.2-1.3 0.1-1.4-0.5c0-0.2-0.1-0.6-0.1-0.9l0-1c-0.1-3.3-0.1-5.8-0.1-7.6s0-4.4 0-7.6 c0-3.2 0-9.4 0-18.4c-0.2 1.3-0.7 3.9-1.5 7.6c-0.7 3.7-1.2 6.4-1.5 8.1c-0.3 1.7-0.5 3.1-0.7 4.2s-0.3 2.1-0.5 3 c-0.2 0.9-0.3 1.8-0.6 2.7c-0.5 1.9-1.2 2.9-2.1 2.9c-1.3 0-2-2-2-6c-0.2-2-0.9-6.1-2.1-12.3c-1.1-6.1-1.9-10.4-2.3-12.7 c0 4-0.1 6.9-0.1 8.9l0.5 26.7c0 0.9-0.3 1.7-1 2.4c-1.1 0-1.8-0.4-2.2-1.1c-0.4-0.7-0.6-1.7-0.6-2.9l0.2-10.7l-0.2-24.8 c0-2.8 0-5.5 0.1-8.3l1.8-1c1.2 0.1 2.5 3.9 4 11.3c1.2 5.8 2.1 11.2 2.9 16.1S237.6 36.4 237.7 36.7z"/>
		<path class="st1" d="M261 26.5l-1.6-0.1c-0.5 0-0.9 0.2-1.1 0.5v19.8c2.2-0.1 3.3-0.2 3.4-0.2c2.4 0 3.6 0.6 3.6 1.7v0.2 c-0.3 0.6-0.8 1-1.5 1.3c-0.7 0.3-1.3 0.5-1.8 0.5c-0.5 0-1.2 0.1-2.1 0.1h-2c-1.6 0-2.6-0.3-3-0.9c-0.2-0.3-0.3-0.7-0.3-1.2V2 l5.5-0.6c0.6 0 1.3 0.2 2 0.6s1 0.9 1 1.5c0 1.3-1 1.9-2.9 1.9l-1.8-0.1c-0.3 0-0.5 0-0.7 0l0.5 10.6c0 0.9-0.1 2.1-0.2 3.7 c-0.1 1.6-0.2 2.8-0.2 3.6c0.2 0 0.5-0.1 0.9-0.2c0.9-0.2 1.6-0.3 2-0.3c0.5 0 0.9 0.2 1.3 0.5c0.4 0.4 0.6 0.8 0.6 1.3 c0 0.5-0.2 1-0.5 1.3C261.9 26.3 261.5 26.5 261 26.5z"/>
		<path class="st1" d="M271.6 51.2c-1-0.3-1.9-1-2.4-2.2c0-0.7 0.3-1.4 0.8-2c0.5-0.6 1.2-0.9 1.9-0.9s1.4 0.3 1.9 0.9 c0.5 0.6 0.7 1.3 0.7 2.2c0 1.5-1 2.3-2.8 2.4V51.2z M273.3 33l-0.1 3.5c0 2.7-0.3 4-1 4c-0.7 0-1-1.9-1-5.6l0-10.6l-0.5-21 c0-0.7 0.3-1.2 0.8-1.7c0.6-0.5 1.1-0.7 1.7-0.7s1 0.2 1.3 0.5c0.3 0.3 0.5 0.7 0.5 1.1c0 3.4-0.3 8.5-0.8 15.3 C273.6 24.5 273.3 29.6 273.3 33z"/>
	</g>
</a>
</svg>